<?xml version="1.0" encoding="UTF-8"?><svg id="Layer_1" xmlns="http://www.w3.org/2000/svg" xmlns:xlink="http://www.w3.org/1999/xlink" viewBox="0 0 233.6 62.8"><defs><style>.cls-1{fill:#fff;}.cls-2{fill:#c90;}.cls-3{clip-path:url(#clippath);}.cls-4{fill:none;}</style><clipPath id="clippath"><rect class="cls-4" width="233.6" height="62.8"/></clipPath></defs><g class="cls-3"><path class="cls-2" d="M233.6,57.6c-6.96,0-10.48-3.36-10.48-10.16V21.68h10.48v-5.68h-10.48V.08h-6.16V48.48c0,9.44,5.52,14.16,16.64,14.16v-5.04Zm-23.44-41.52h-6.16v26.72c0,3.84-1.44,7.12-4.24,9.92-2.8,2.72-6,4.08-9.76,4.08s-7.04-1.36-9.84-4.08c-2.8-2.8-4.16-6.08-4.16-9.92V16.08h-6.16v26c0,5.92,1.92,10.88,5.68,14.8,3.84,3.92,8.64,5.92,14.48,5.92s10.64-2,14.4-5.92c3.84-3.92,5.76-8.88,5.76-14.8V16.08ZM127.68,51.12c-3.28-3.6-4.8-7.84-4.72-12.64,.08-4.88,1.76-8.96,5.2-12.4,3.44-3.44,7.52-5.2,12.4-5.12,4.64,0,8.56,1.68,11.84,5.12,3.28,3.44,5.04,7.52,5.2,12.32,.08,5.04-1.6,9.36-5.2,13.12-3.52,3.76-7.76,5.44-12.8,5.2-4.72-.16-8.64-2-11.92-5.6m36-12.24c0-6.4-2.24-11.92-6.64-16.56-4.4-4.72-9.84-7.12-16.16-7.36-6.56-.24-12.24,2.08-16.96,6.88-4.72,4.72-7.12,10.48-7.12,17.12s2.16,11.92,6.56,16.56c4.4,4.64,9.84,7.04,16.16,7.2,6.56,.24,12.24-2.08,16.96-6.8,4.8-4.8,7.2-10.48,7.2-17.04"/><path class="cls-1" d="M88.64,56.72c-4.96,.24-9.2-1.52-12.8-5.2-3.6-3.76-5.28-8.16-5.12-13.2,.08-4.8,1.84-8.88,5.12-12.32,3.28-3.44,7.28-5.12,11.92-5.12,4.88,0,8.96,1.76,12.32,5.2,3.44,3.44,5.2,7.52,5.28,12.32,.08,4.88-1.52,9.04-4.8,12.64-3.28,3.6-7.2,5.44-11.92,5.68m-24.08-17.92c-.16,6.56,2.16,12.24,7.04,17.04,4.88,4.8,10.56,7.12,17.12,6.88,6.32-.24,11.76-2.64,16.16-7.28,4.4-4.64,6.64-10.16,6.64-16.56s-2.4-12.32-7.2-17.12c-4.72-4.8-10.4-7.04-16.96-6.8-6.72,.24-12.32,2.88-16.8,8.08V0h-6V38.8Zm-45.44-3.44L31.12,7.2l11.76,28.16H19.12ZM34.4,.08h-6.88L0,61.68H7.84l8.64-20.8h28.56l8.72,20.8h6.8L34.4,.08Z"/></g></svg>