<?xml version="1.0" encoding="UTF-8"?><svg id="Layer_1" xmlns="http://www.w3.org/2000/svg" xmlns:xlink="http://www.w3.org/1999/xlink" viewBox="0 0 297.84 79.22"><defs><style>.cls-1{fill:#fff;}.cls-2{fill:#c90;}.cls-3{clip-path:url(#clippath);}.cls-4{fill:none;}</style><clipPath id="clippath"><rect class="cls-4" width="297.84" height="79.22"/></clipPath></defs><g class="cls-3"><path class="cls-2" d="M274.64,56.4c-4.8,0-8.88-1.68-12.32-5.12-3.44-3.44-5.2-7.52-5.28-12.4-.08-4.8,1.52-8.96,4.8-12.56,3.28-3.6,7.2-5.52,11.92-5.76,5.04-.24,9.28,1.52,12.8,5.28,3.6,3.76,5.28,8.08,5.12,13.12-.08,4.8-1.84,8.88-5.12,12.32-3.28,3.44-7.2,5.12-11.92,5.12m23.2-17.92c.08-6.56-2.24-12.24-7.12-16.96-4.8-4.8-10.48-7.12-17.04-6.96-6.32,.24-11.76,2.64-16.16,7.28-4.4,4.64-6.56,10.16-6.56,16.56s2.4,12.4,7.12,17.2c4.72,4.72,10.4,7.04,16.96,6.8,6.72-.24,12.32-2.96,16.8-8.08v4.32c0,4.24-1.68,7.92-4.96,10.96-3.28,3.12-7.12,4.64-11.6,4.72-3.76,0-7.2-1.12-10.32-3.44-3.12-2.24-5.2-4.96-6.08-8.08h-5.92c1.28,4.64,3.76,8.48,7.52,11.44,3.92,3.12,8.64,4.72,14.08,4.96,6.08,.24,11.44-1.6,16.16-5.36,4.72-3.76,7.12-8.56,7.12-14.32v-21.04Zm-53.28-2.8c0-5.92-1.92-10.8-5.76-14.72-3.84-3.92-8.64-5.92-14.4-5.92s-10.64,2-14.48,5.92c-3.84,3.92-5.76,8.8-5.76,14.72v26h6.16v-26.64c0-3.84,1.36-7.12,4.16-9.92s6.16-4.16,9.92-4.16,6.96,1.36,9.76,4.16c2.8,2.8,4.24,6.08,4.24,9.92v26.64h6.16v-26Zm-46.96-19.6h-6V61.68h6V16.08ZM197.6,0h-6V10.64h6V0Zm-29.28,39.04l17.36-22.96h-7.6l-21.12,27.36V0h-6.32V61.68h6.56v-8.72l7.28-9.2,14.8,17.92h7.92l-18.88-22.64Z"/><path class="cls-1" d="M108.48,51.12c-3.28-3.6-4.8-7.84-4.72-12.64,.08-4.88,1.76-8.96,5.2-12.4,3.44-3.44,7.52-5.2,12.4-5.12,4.64,0,8.56,1.68,11.84,5.12,3.28,3.44,5.04,7.52,5.2,12.32,.08,5.04-1.6,9.36-5.2,13.12-3.52,3.76-7.76,5.44-12.8,5.2-4.72-.16-8.64-2-11.92-5.6m36-12.24c0-6.4-2.24-11.92-6.64-16.56-4.4-4.72-9.84-7.12-16.16-7.36-6.56-.24-12.24,2.08-16.96,6.88-4.72,4.72-7.12,10.48-7.12,17.12s2.16,11.92,6.56,16.56c4.4,4.64,9.84,7.04,16.16,7.2,6.56,.24,12.24-2.08,16.96-6.8,4.8-4.8,7.2-10.48,7.2-17.04m-89.04,12.24c-3.28-3.6-4.8-7.84-4.72-12.64,.08-4.88,1.76-8.96,5.2-12.4,3.44-3.44,7.52-5.2,12.4-5.12,4.64,0,8.56,1.68,11.84,5.12,3.28,3.44,5.04,7.52,5.2,12.32,.08,5.04-1.6,9.36-5.2,13.12-3.52,3.76-7.76,5.44-12.8,5.2-4.72-.16-8.64-2-11.92-5.6m36-12.24c0-6.4-2.24-11.92-6.64-16.56-4.4-4.72-9.84-7.12-16.16-7.36-6.56-.24-12.24,2.08-16.96,6.88-4.72,4.72-7.12,10.48-7.12,17.12s2.16,11.92,6.56,16.56c4.4,4.64,9.84,7.04,16.16,7.2,6.56,.24,12.24-2.08,16.96-6.8,4.8-4.8,7.2-10.48,7.2-17.04M6.4,55.84v-23.84h10.88c4.4,0,7.84,.88,10.48,2.72,2.88,2,4.4,4.96,4.64,8.88,.4,7.36-5.28,12.24-14.8,12.24H6.4Zm0-29.44V5.84h10.88c3.44,0,6.24,.88,8.56,2.64,2.56,1.84,3.84,4.48,3.84,7.76,0,2.96-1.2,5.44-3.68,7.36-2.4,1.84-5.2,2.8-8.4,2.8H6.4Zm13.2,35.28c5.2,0,9.68-1.68,13.52-5.04,3.92-3.44,5.76-7.6,5.6-12.48-.24-7.28-3.6-12.48-9.92-15.44,4.72-3.04,7.04-7.28,7.04-12.8,0-4.64-1.92-8.48-5.68-11.52C26.56,1.52,22.32,.08,17.44,.08H0V61.68H19.6Z"/></g></svg>