<?xml version="1.0" encoding="UTF-8"?><svg id="Layer_1" xmlns="http://www.w3.org/2000/svg" xmlns:xlink="http://www.w3.org/1999/xlink" viewBox="0 0 388.11 64.13"><defs><style>.cls-1{fill:#fff;}.cls-2{fill:#c90;}.cls-3{clip-path:url(#clippath);}.cls-4{fill:none;}</style><clipPath id="clippath"><rect class="cls-4" width="388.11" height="64.13"/></clipPath></defs><g class="cls-3"><path class="cls-2" d="M365.33,49.27h-6.37c0,3.95,1.29,7.34,3.87,10.16,2.66,2.82,5.89,4.43,9.76,4.68,4.19,.24,7.9-1.13,11.13-4.11,3.23-3.06,4.68-6.69,4.35-10.8-.4-6.05-3.71-10.16-9.84-12.26l-5.32-1.77c-4.11-1.37-6.13-3.71-5.89-7.01,.08-3.55,2.98-6.21,6.45-6.29,3.55,0,6.77,2.18,6.77,5.4v1.05h6.45l-.08-1.37c-.24-3.23-1.69-5.89-4.43-8.06-2.66-2.18-5.56-3.23-8.71-3.06-3.63,.16-6.69,1.53-9.27,4.03-2.5,2.5-3.71,5.56-3.55,9.11,.24,5.89,3.23,9.76,8.87,11.53l5.4,1.69c4.52,1.45,6.77,4.11,6.69,8.06-.08,2.26-.73,4.11-2.1,5.48-1.53,1.53-3.55,2.26-6.13,2.34-1.94,.08-3.79-.73-5.48-2.42-1.69-1.69-2.58-3.31-2.58-4.84v-1.53ZM352.35,.73h-6.21V42.57c0,4.35-1.45,7.98-4.35,10.97-2.82,2.98-6.37,4.43-10.48,4.43s-7.82-1.61-10.64-4.76c-2.82-3.23-4.19-7.18-4.19-11.85V.73h-6.13V42.49c0,6.05,2.02,11.21,5.97,15.32,3.95,4.11,8.87,6.13,14.67,6.21,5.89,.08,10.97-1.85,15.08-5.97,4.19-4.11,6.29-9.27,6.29-15.32V.73Z"/><path class="cls-1" d="M304.94,58.78c-7.01,0-10.56-3.39-10.56-10.24V22.58h10.56v-5.72h-10.56V.81h-6.21V49.59c0,9.51,5.56,14.27,16.77,14.27v-5.08Zm-20-9.43h-6.93c-3.55,5.64-8.87,8.55-16.05,8.63-5,.08-9.35-1.69-12.98-5.24-3.63-3.63-5.48-7.9-5.48-12.9s1.94-9.35,5.89-12.98c3.79-3.55,7.98-5.24,12.74-5.16,7.1,.16,12.34,3.23,15.8,9.11h6.93l-.89-2.02c-1.69-3.79-4.6-6.85-8.55-9.35-4.19-2.58-8.71-3.87-13.55-3.79-6.77,.08-12.58,2.58-17.5,7.34-4.84,4.76-7.18,10.4-7.1,17.09,.08,6.61,2.5,12.26,7.34,16.85,4.84,4.6,10.56,6.93,17.25,7.01,10.08,.08,17.58-4.27,22.41-13.22l.65-1.37Zm-89.9-22.41c3.47-3.47,7.58-5.16,12.5-5.16s8.71,1.69,12.01,5.16c3.31,3.47,5.08,7.58,5.16,12.42,.08,5.08-1.61,9.51-5.24,13.3-3.55,3.71-7.82,5.48-12.9,5.24-4.68-.24-8.71-2.1-12.01-5.72-3.31-3.63-4.84-7.9-4.76-12.74,.08-4.92,1.77-9.03,5.24-12.5m35.8,13.22v-.32c.24-6.37-1.94-11.93-6.45-16.61-4.52-4.76-10-7.18-16.45-7.42-6.69-.24-12.42,2.02-17.17,6.85-4.76,4.76-7.18,10.56-7.18,17.25s2.26,12.01,6.69,16.69c4.43,4.68,9.84,7.1,16.21,7.34,7.26,.24,13.38-2.5,18.38-8.22v7.18h5.97v-22.74Zm-52.57,18.63c-7.01,0-10.56-3.39-10.56-10.24V22.58h10.56v-5.72h-10.56V.81h-6.21V49.59c0,9.51,5.56,14.27,16.77,14.27v-5.08Zm-23.22-22.09c0-5.97-1.94-10.88-5.81-14.84-3.87-3.95-8.71-5.97-14.51-5.97s-10.72,2.02-14.59,5.97c-3.87,3.95-5.81,8.87-5.81,14.84v26.2h6.21v-26.85c0-3.87,1.37-7.18,4.19-10,2.82-2.82,6.21-4.19,10-4.19s7.01,1.37,9.84,4.19,4.27,6.13,4.27,10v26.85h6.21v-26.2Zm-83.05,15.56c-3.31-3.63-4.84-7.9-4.76-12.74,.08-4.92,1.77-9.03,5.24-12.5,3.47-3.47,7.58-5.24,12.5-5.16,4.68,0,8.63,1.69,11.93,5.16,3.31,3.47,5.08,7.58,5.24,12.42,.08,5.08-1.61,9.43-5.24,13.22-3.55,3.79-7.82,5.48-12.9,5.24-4.76-.16-8.71-2.02-12.01-5.64m36.28-12.34c0-6.45-2.26-12.01-6.69-16.69-4.43-4.76-9.92-7.18-16.29-7.42-6.61-.24-12.34,2.1-17.09,6.93-4.76,4.76-7.18,10.56-7.18,17.25s2.18,12.01,6.61,16.69c4.43,4.68,9.92,7.1,16.29,7.26,6.61,.24,12.34-2.1,17.09-6.85,4.84-4.84,7.26-10.56,7.26-17.17m-55.15,7.01c-2.18,3.23-5.16,5.89-8.95,7.98-3.95,2.18-8.06,3.31-12.26,3.31-7.18,0-13.38-2.66-18.54-7.9-5.08-5.32-7.58-11.61-7.42-18.87,.16-7.01,2.74-12.98,7.66-17.9,5-5,10.97-7.5,17.82-7.5,9.27-.08,16.45,3.55,21.61,11.05h7.01c-2.66-5.16-6.45-9.27-11.29-12.34C43.7,1.61,38.14,.08,31.93,0,23.06-.08,15.56,2.9,9.43,8.95,3.14,15,0,22.66,0,31.77s3.14,16.53,9.35,22.9c6.29,6.37,13.79,9.51,22.58,9.43,12.34-.24,22.41-6.45,28.14-17.17h-6.93Z"/></g></svg>