<?xml version="1.0" encoding="utf-8"?>
<!-- Generator: Adobe Illustrator 26.3.1, SVG Export Plug-In . SVG Version: 6.00 Build 0)  -->
<svg version="1.1" id="Layer_1" xmlns="http://www.w3.org/2000/svg" xmlns:xlink="http://www.w3.org/1999/xlink" x="0px" y="0px"
	 viewBox="0 0 14 14" style="enable-background:new 0 0 14 14;" xml:space="preserve">
<style type="text/css">
	.st0{fill-rule:evenodd;clip-rule:evenodd;fill:#075962;}
</style>
<g id="Page-1">
	<g id="Ecommerce" transform="translate(-180.000000, -5886.000000)">
		<g id="Cart-_x23_1-Copy" transform="translate(150.000000, 5772.000000)">
			<g id="_x23_1" transform="translate(30.000000, 81.000000)">
				<path id="Icon" class="st0" d="M12.4,33.3l-4.9,4.9c-0.2,0.2-0.5,0.2-0.7,0l-5.1-5.1c-0.2-0.2-0.5-0.2-0.7,0l-0.7,0.7
					c-0.2,0.2-0.2,0.5,0,0.7l5.1,5.1c0.2,0.2,0.2,0.5,0,0.7l-4.9,4.9c-0.2,0.2-0.2,0.5,0,0.7l0.7,0.7c0.2,0.2,0.5,0.2,0.7,0l4.9-4.9
					c0.2-0.2,0.5-0.2,0.7,0l4.7,4.7c0.2,0.2,0.5,0.2,0.7,0l0.7-0.7c0.2-0.2,0.2-0.5,0-0.7l-4.7-4.7c-0.2-0.2-0.2-0.5,0-0.7l4.9-4.9
					c0.2-0.2,0.2-0.5,0-0.7l-0.7-0.7C12.9,33.1,12.6,33.1,12.4,33.3"/>
			</g>
		</g>
	</g>
</g>
</svg>
