<?xml version="1.0" encoding="utf-8"?>
<!-- Generator: Adobe Illustrator 26.3.1, SVG Export Plug-In . SVG Version: 6.00 Build 0)  -->
<svg version="1.1" id="Layer_1" xmlns="http://www.w3.org/2000/svg" xmlns:xlink="http://www.w3.org/1999/xlink" x="0px" y="0px"
	 viewBox="0 0 20 20" style="enable-background:new 0 0 20 20;" xml:space="preserve">
<style type="text/css">
	.st0{fill:none;stroke:#000000;stroke-width:1.000000e-02;stroke-miterlimit:10;}
</style>
<g>
	<g>
		<polygon class="st0" points="12.8,11 12.8,17.5 14.7,18.5 14.7,12 12.8,11 		"/>
		<polygon class="st0" points="15.1,10.7 12.8,11 14.7,12 17,11.7 15.1,10.7 		"/>
		<polygon class="st0" points="15.5,8 15.5,8.2 15.5,8.3 15.4,8.5 15.4,8.7 15.4,8.9 15.4,9 15.3,9.2 15.3,9.3 15.3,9.5 15.3,9.7 
			15.2,9.8 15.2,10 15.2,10.2 15.2,10.3 15.2,10.5 15.1,10.7 17,11.7 17,11.5 17,11.3 17,11.2 17,11 17.1,10.8 17.1,10.7 17.1,10.5 
			17.1,10.3 17.2,10.2 17.2,10 17.2,9.8 17.2,9.7 17.3,9.5 17.3,9.3 17.3,9.2 17.3,9 15.5,8 		"/>
		<polygon class="st0" points="12.8,8.4 15.5,8 17.3,9 14.7,9.4 12.8,8.4 		"/>
		<polygon class="st0" points="15.6,5.1 14.7,5.2 14.6,5.2 14.4,5.2 14.3,5.3 14.2,5.3 14,5.3 13.9,5.4 13.8,5.4 13.6,5.4 13.5,5.5 
			13.5,5.5 13.4,5.6 13.3,5.6 13.2,5.7 13.2,5.7 13.1,5.8 13.1,5.8 13,5.9 13,6 12.9,6.1 12.9,6.1 12.9,6.2 12.8,6.3 12.8,6.4 
			12.8,6.5 12.8,8.4 14.7,9.4 14.7,7.5 14.7,7.4 14.7,7.3 14.7,7.2 14.7,7.1 14.7,7 14.8,7 14.8,6.9 14.9,6.8 14.9,6.8 15,6.7 
			15.1,6.6 15.1,6.6 15.2,6.5 15.3,6.5 15.4,6.5 15.5,6.4 15.6,6.4 15.7,6.3 15.9,6.3 16,6.3 16.1,6.3 16.3,6.2 16.4,6.2 16.5,6.2 
			17.4,6.1 15.6,5.1 		"/>
		<polygon class="st0" points="15.6,2.8 15.6,5.1 17.4,6.1 17.4,3.8 15.6,2.8 		"/>
		<polygon class="st0" points="10,8.8 10,8.2 10,8 10,7.9 10,7.7 10,7.5 10,7.4 10,7.2 10,7.1 10,6.9 10,6.8 10,6.6 10.1,6.4 
			10.1,6.3 10.1,6.1 10.1,6 10.1,5.8 10.2,5.7 10.2,5.6 10.2,5.4 10.3,5.3 10.3,5.2 10.3,5.1 10.4,5 10.5,4.9 10.5,4.8 10.6,4.6 
			10.7,4.5 10.7,4.4 10.8,4.3 10.9,4.2 11,4.1 11.1,4 11.2,4 11.3,3.9 11.4,3.8 11.5,3.7 11.6,3.6 11.7,3.6 11.8,3.5 11.9,3.4 
			12,3.4 12.1,3.3 12.3,3.3 12.4,3.2 12.5,3.2 12.6,3.1 12.8,3.1 12.9,3.1 13,3.1 14.8,2.8 14.9,2.8 15,2.8 15.1,2.8 15.2,2.8 
			15.3,2.8 15.4,2.8 15.5,2.8 15.6,2.8 17.4,3.8 17.3,3.8 17.2,3.8 17.1,3.8 17,3.8 16.9,3.8 16.8,3.8 16.7,3.8 16.6,3.8 14.8,4.1 
			14.7,4.1 14.6,4.1 14.5,4.1 14.3,4.2 14.2,4.2 14.1,4.3 14,4.3 13.9,4.4 13.7,4.4 13.6,4.5 13.5,4.5 13.4,4.6 13.3,4.7 13.2,4.8 
			13.1,4.9 13,4.9 12.9,5 12.8,5.1 12.7,5.2 12.6,5.3 12.6,5.4 12.5,5.5 12.4,5.6 12.3,5.7 12.3,5.9 12.2,6 12.2,6.1 12.1,6.2 
			12.1,6.3 12,6.4 12,6.6 12,6.7 11.9,6.8 11.9,7 11.9,7.1 11.9,7.3 11.9,7.4 11.9,7.6 11.9,7.7 11.9,7.9 11.9,8.1 11.8,8.2 
			11.8,8.4 11.8,8.5 11.8,8.7 11.8,8.8 11.8,9 11.8,9.2 11.8,9.8 10,8.8 		"/>
		<polygon class="st0" points="7.7,9.1 10,8.8 11.8,9.8 9.5,10.1 7.7,9.1 		"/>
		<polygon class="st0" points="7.7,11.8 7.7,9.1 9.5,10.1 9.5,12.7 7.7,11.8 		"/>
		<polygon class="st0" points="10,11.4 7.7,11.8 9.5,12.7 11.8,12.4 10,11.4 		"/>
		<polygon class="st0" points="10,17.9 10,11.4 11.8,12.4 11.8,18.9 10,17.9 		"/>
		<polygon class="st0" points="0.9,17.5 1,17.6 1.1,17.7 1.3,17.8 1.4,18 1.6,18.1 1.7,18.2 1.9,18.3 2,18.4 2.2,18.4 2.4,18.5 
			2.6,18.6 2.7,18.6 2.9,18.7 3.1,18.7 3.3,18.7 3.5,18.7 3.7,18.7 3.9,18.7 4.2,18.7 4.4,18.7 10,17.9 11.8,18.9 6.2,19.7 6,19.7 
			5.8,19.7 5.6,19.7 5.4,19.7 5.1,19.7 4.9,19.7 4.8,19.7 4.6,19.6 4.4,19.6 4.2,19.5 4,19.4 3.9,19.3 3.7,19.3 3.5,19.2 3.4,19.1 
			3.2,18.9 3.1,18.8 3,18.7 2.8,18.6 2.7,18.4 0.9,17.5 		"/>
		<polygon class="st0" points="4.4,1.7 4.2,1.7 3.9,1.7 3.7,1.8 3.5,1.9 3.3,1.9 3.1,2 2.9,2.1 2.7,2.2 2.6,2.3 2.4,2.4 2.2,2.5 
			2,2.7 1.9,2.8 1.7,2.9 1.6,3.1 1.4,3.3 1.3,3.4 1.1,3.6 1,3.7 0.9,3.9 0.8,4.1 0.7,4.3 0.6,4.5 0.5,4.7 0.4,4.8 0.4,5 0.3,5.2 
			0.3,5.4 0.2,5.6 0.2,5.8 0.2,6 0.2,6.3 0.2,15.4 0.2,15.6 0.2,15.8 0.2,16 0.3,16.1 0.3,16.3 0.4,16.5 0.4,16.7 0.5,16.8 0.6,17 
			0.7,17.2 0.8,17.3 0.9,17.5 2.7,18.4 2.6,18.3 2.5,18.1 2.4,18 2.3,17.8 2.3,17.7 2.2,17.5 2.1,17.3 2.1,17.1 2.1,16.9 2,16.8 
			2,16.6 2,16.4 2,7.2 2,7 2,6.8 2.1,6.6 2.1,6.4 2.1,6.2 2.2,6 2.3,5.8 2.3,5.6 2.4,5.5 2.5,5.3 2.6,5.1 2.7,4.9 2.8,4.7 3,4.6 
			3.1,4.4 3.2,4.2 3.4,4.1 3.5,3.9 3.7,3.8 3.9,3.7 4,3.5 4.2,3.4 4.4,3.3 4.6,3.2 4.8,3.1 4.9,3 5.1,2.9 5.3,2.8 5.6,2.8 5.8,2.7 
			6,2.7 6.2,2.6 4.4,1.7 		"/>
		<polygon class="st0" points="18,13.6 19.8,14.6 19.8,14.7 19.7,14.9 19.7,15.1 19.6,15.3 19.5,15.4 19.5,15.6 19.4,15.7 
			19.3,15.9 19.2,16.1 19.1,16.2 19,16.4 18.9,16.5 18.8,16.6 18.6,16.8 18.5,16.9 18.4,17 18.2,17.2 18.1,17.3 17.9,17.4 
			17.8,17.5 17.6,17.6 17.5,17.7 17.3,17.8 17.2,17.9 17,18 16.8,18 16.6,18.1 16.5,18.2 16.3,18.2 16.1,18.3 15.9,18.3 15.7,18.3 
			14.7,18.5 12.8,17.5 13.9,17.3 14.1,17.3 14.3,17.3 14.5,17.2 14.6,17.2 14.8,17.1 15,17 15.2,17 15.3,16.9 15.5,16.8 15.7,16.7 
			15.8,16.6 16,16.5 16.1,16.4 16.3,16.3 16.4,16.2 16.5,16.1 16.7,15.9 16.8,15.8 16.9,15.7 17,15.5 17.2,15.4 17.3,15.2 
			17.4,15.1 17.5,14.9 17.6,14.8 17.6,14.6 17.7,14.4 17.8,14.3 17.8,14.1 17.9,13.9 17.9,13.8 18,13.6 		"/>
		<polygon class="st0" points="18,13.6 18,3 17.9,2.9 17.9,2.7 17.8,2.5 17.8,2.4 17.7,2.2 17.6,2.1 17.5,1.9 17.5,1.8 17.4,1.7 
			17.3,1.5 17.1,1.4 17,1.3 16.9,1.2 16.8,1.1 16.7,1 16.5,0.9 16.4,0.8 16.2,0.7 16.1,0.6 15.9,0.6 15.8,0.5 15.6,0.4 15.4,0.4 
			15.3,0.4 15.1,0.3 14.9,0.3 14.7,0.3 14.6,0.3 14.4,0.3 14.2,0.3 14,0.3 13.8,0.3 4.4,1.7 6.2,2.6 15.6,1.3 15.8,1.3 16,1.3 
			16.2,1.3 16.4,1.3 16.6,1.3 16.7,1.3 16.9,1.3 17.1,1.3 17.3,1.4 17.4,1.4 17.6,1.5 17.8,1.5 17.9,1.6 18.1,1.7 18.2,1.8 
			18.3,1.9 18.5,2 18.6,2.1 18.7,2.2 18.9,2.3 19,2.4 19.1,2.5 19.2,2.6 19.3,2.8 19.4,2.9 19.5,3.1 19.5,3.2 19.6,3.4 19.7,3.5 
			19.7,3.7 19.8,3.8 19.8,4 19.8,14.6 18,13.6 		"/>
		<polygon class="st0" points="15.5,8 12.8,8.4 14.7,9.4 17.3,9 15.5,8 		"/>
		<polygon class="st0" points="15.1,10.7 15.2,10.5 15.2,10.3 15.2,10.2 15.2,10 15.2,9.8 15.3,9.7 15.3,9.5 15.3,9.3 15.3,9.2 
			15.4,9 15.4,8.9 15.4,8.7 15.4,8.5 15.5,8.3 15.5,8.2 15.5,8 17.3,9 17.3,9.2 17.3,9.3 17.3,9.5 17.2,9.7 17.2,9.8 17.2,10 
			17.2,10.2 17.1,10.3 17.1,10.5 17.1,10.7 17.1,10.8 17,11 17,11.2 17,11.3 17,11.5 17,11.7 15.1,10.7 		"/>
		<polygon class="st0" points="12.8,11 15.1,10.7 17,11.7 14.7,12 12.8,11 		"/>
		<polygon class="st0" points="12.8,17.5 12.8,11 14.7,12 14.7,18.5 12.8,17.5 		"/>
		<polygon class="st0" points="10,17.9 12.8,17.5 14.7,18.5 11.8,18.9 10,17.9 		"/>
		<polygon class="st0" points="10,11.4 10,17.9 11.8,18.9 11.8,12.4 10,11.4 		"/>
		<polygon class="st0" points="7.7,11.8 10,11.4 11.8,12.4 9.5,12.7 7.7,11.8 		"/>
		<polygon class="st0" points="7.7,9.1 7.7,11.8 9.5,12.7 9.5,10.1 7.7,9.1 		"/>
		<polygon class="st0" points="10,8.8 7.7,9.1 9.5,10.1 11.8,9.8 10,8.8 		"/>
		<polygon class="st0" points="15.6,2.8 15.5,2.8 15.4,2.8 15.3,2.8 15.2,2.8 15.1,2.8 15,2.8 14.9,2.8 14.8,2.8 13,3.1 12.9,3.1 
			12.8,3.1 12.6,3.1 12.5,3.2 12.4,3.2 12.3,3.3 12.1,3.3 12,3.4 11.9,3.4 11.8,3.5 11.7,3.6 11.6,3.6 11.5,3.7 11.4,3.8 11.3,3.9 
			11.2,4 11.1,4 11,4.1 10.9,4.2 10.8,4.3 10.7,4.4 10.7,4.5 10.6,4.6 10.5,4.8 10.5,4.9 10.4,5 10.3,5.1 10.3,5.2 10.3,5.3 
			10.2,5.4 10.2,5.6 10.2,5.7 10.1,5.8 10.1,6 10.1,6.1 10.1,6.3 10,6.4 10,6.6 10,6.8 10,6.9 10,7.1 10,7.2 10,7.4 10,7.5 10,7.7 
			10,7.9 10,8 10,8.2 10,8.8 11.8,9.8 11.8,9.2 11.8,9 11.8,8.9 11.8,8.7 11.8,8.5 11.8,8.4 11.8,8.2 11.9,8.1 11.9,7.9 11.9,7.7 
			11.9,7.6 11.9,7.4 11.9,7.3 11.9,7.1 11.9,7 11.9,6.8 12,6.7 12,6.6 12,6.4 12.1,6.3 12.1,6.2 12.2,6.1 12.2,6 12.3,5.9 12.3,5.7 
			12.4,5.6 12.5,5.5 12.6,5.4 12.6,5.3 12.7,5.2 12.8,5.1 12.9,5 13,4.9 13.1,4.9 13.2,4.8 13.3,4.7 13.4,4.6 13.5,4.5 13.6,4.5 
			13.7,4.4 13.9,4.4 14,4.3 14.1,4.3 14.2,4.2 14.3,4.2 14.5,4.1 14.6,4.1 14.7,4.1 14.8,4.1 16.6,3.8 16.7,3.8 16.8,3.8 16.9,3.8 
			17,3.8 17.1,3.8 17.2,3.8 17.3,3.8 17.4,3.8 15.6,2.8 		"/>
		<polygon class="st0" points="15.6,5.1 17.4,6.1 16.5,6.2 16.4,6.2 16.3,6.2 16.1,6.3 16,6.3 15.9,6.3 15.7,6.3 15.6,6.4 15.5,6.4 
			15.4,6.5 15.3,6.5 15.2,6.5 15.1,6.6 15.1,6.6 15,6.7 14.9,6.8 14.9,6.8 14.8,6.9 14.8,7 14.7,7 14.7,7.1 14.7,7.2 14.7,7.3 
			14.7,7.4 14.7,7.5 14.7,9.4 12.8,8.4 12.8,6.5 12.8,6.4 12.8,6.3 12.9,6.2 12.9,6.1 12.9,6.1 13,6 13,5.9 13.1,5.8 13.1,5.8 
			13.2,5.7 13.2,5.7 13.3,5.6 13.4,5.6 13.5,5.5 13.5,5.5 13.6,5.4 13.8,5.4 13.9,5.4 14,5.3 14.2,5.3 14.3,5.3 14.4,5.2 14.6,5.2 
			14.7,5.2 15.6,5.1 		"/>
		<polygon class="st0" points="15.6,5.1 15.6,2.8 17.4,3.8 17.4,6.1 15.6,5.1 		"/>
		<polygon class="st0" points="19.8,14.6 19.8,4 19.8,3.8 19.7,3.7 19.7,3.5 19.6,3.4 19.5,3.2 19.5,3.1 19.4,2.9 19.3,2.8 
			19.2,2.6 19.1,2.5 19,2.4 18.9,2.3 18.7,2.2 18.6,2.1 18.5,2 18.3,1.9 18.2,1.8 18.1,1.7 17.9,1.6 17.8,1.5 17.6,1.5 17.4,1.4 
			17.3,1.4 17.1,1.3 16.9,1.3 16.7,1.3 16.6,1.3 16.4,1.3 16.2,1.3 16,1.3 15.8,1.3 15.6,1.3 6.2,2.6 6,2.7 5.8,2.7 5.6,2.8 
			5.3,2.8 5.1,2.9 4.9,3 4.8,3.1 4.6,3.2 4.4,3.3 4.2,3.4 4,3.5 3.9,3.7 3.7,3.8 3.5,3.9 3.4,4.1 3.2,4.2 3.1,4.4 3,4.6 2.8,4.7 
			2.7,4.9 2.6,5.1 2.5,5.3 2.4,5.5 2.3,5.6 2.3,5.8 2.2,6 2.1,6.2 2.1,6.4 2.1,6.6 2,6.8 2,7 2,7.2 2,16.4 2,16.6 2,16.8 2.1,16.9 
			2.1,17.1 2.1,17.3 2.2,17.5 2.3,17.7 2.3,17.8 2.4,18 2.5,18.1 2.6,18.3 2.7,18.4 2.8,18.6 3,18.7 3.1,18.8 3.2,18.9 3.4,19.1 
			3.5,19.2 3.7,19.3 3.9,19.3 4,19.4 4.2,19.5 4.4,19.6 4.6,19.6 4.8,19.7 4.9,19.7 5.1,19.7 5.4,19.7 5.6,19.7 5.8,19.7 6,19.7 
			6.2,19.7 11.8,18.9 11.8,12.4 9.5,12.7 9.5,10.1 11.8,9.8 11.8,9.2 11.8,9 11.8,8.8 11.8,8.7 11.8,8.5 11.8,8.4 11.8,8.2 
			11.9,8.1 11.9,7.9 11.9,7.7 11.9,7.6 11.9,7.4 11.9,7.3 11.9,7.1 11.9,7 11.9,6.8 12,6.7 12,6.6 12,6.4 12.1,6.3 12.1,6.2 
			12.2,6.1 12.2,6 12.3,5.9 12.3,5.7 12.4,5.6 12.5,5.5 12.6,5.4 12.6,5.3 12.7,5.2 12.8,5.1 12.9,5 13,4.9 13.1,4.9 13.2,4.8 
			13.3,4.7 13.4,4.6 13.5,4.5 13.6,4.5 13.7,4.4 13.9,4.4 14,4.3 14.1,4.3 14.2,4.2 14.3,4.2 14.5,4.1 14.6,4.1 14.7,4.1 14.8,4.1 
			16.6,3.8 16.7,3.8 16.8,3.8 16.9,3.8 17,3.8 17.1,3.8 17.2,3.8 17.3,3.8 17.4,3.8 17.4,6.1 16.5,6.2 16.4,6.2 16.3,6.2 16.1,6.3 
			16,6.3 15.9,6.3 15.7,6.3 15.6,6.4 15.5,6.4 15.4,6.5 15.3,6.5 15.2,6.5 15.1,6.6 15.1,6.6 15,6.7 14.9,6.8 14.9,6.8 14.8,6.9 
			14.8,7 14.7,7 14.7,7.1 14.7,7.2 14.7,7.3 14.7,7.4 14.7,7.5 14.7,9.4 17.3,9 17.3,9.2 17.3,9.3 17.3,9.5 17.2,9.7 17.2,9.8 
			17.2,10 17.2,10.2 17.1,10.3 17.1,10.5 17.1,10.7 17.1,10.8 17,11 17,11.2 17,11.3 17,11.5 17,11.7 14.7,12 14.7,18.5 15.7,18.3 
			15.9,18.3 16.1,18.3 16.3,18.2 16.5,18.2 16.6,18.1 16.8,18 17,18 17.2,17.9 17.3,17.8 17.5,17.7 17.6,17.6 17.8,17.5 17.9,17.4 
			18.1,17.3 18.2,17.2 18.4,17 18.5,16.9 18.6,16.8 18.8,16.6 18.9,16.5 19,16.4 19.1,16.2 19.2,16.1 19.3,15.9 19.4,15.7 
			19.5,15.6 19.5,15.4 19.6,15.3 19.7,15.1 19.7,14.9 19.8,14.7 19.8,14.6 		"/>
		<polygon class="st0" points="18,13.6 17.9,13.8 17.9,13.9 17.8,14.1 17.8,14.3 17.7,14.4 17.6,14.6 17.6,14.8 17.5,14.9 
			17.4,15.1 17.3,15.2 17.2,15.4 17,15.5 16.9,15.7 16.8,15.8 16.7,15.9 16.5,16.1 16.4,16.2 16.3,16.3 16.1,16.4 16,16.5 
			15.8,16.6 15.7,16.7 15.5,16.8 15.3,16.9 15.2,17 15,17 14.8,17.1 14.6,17.2 14.5,17.2 14.3,17.3 14.1,17.3 13.9,17.3 12.8,17.5 
			12.8,11 15.1,10.7 15.2,10.5 15.2,10.3 15.2,10.2 15.2,10 15.2,9.8 15.3,9.7 15.3,9.5 15.3,9.3 15.3,9.2 15.4,9 15.4,8.9 
			15.4,8.7 15.4,8.5 15.5,8.3 15.5,8.2 15.5,8 12.8,8.4 12.8,6.5 12.8,6.4 12.8,6.3 12.9,6.2 12.9,6.1 12.9,6.1 13,6 13,5.9 
			13.1,5.8 13.1,5.8 13.2,5.7 13.2,5.7 13.3,5.6 13.4,5.6 13.5,5.5 13.5,5.5 13.6,5.4 13.8,5.4 13.9,5.4 14,5.3 14.2,5.3 14.3,5.3 
			14.4,5.2 14.6,5.2 14.7,5.2 15.6,5.1 15.6,2.8 15.5,2.8 15.4,2.8 15.3,2.8 15.2,2.8 15.1,2.8 15,2.8 14.9,2.8 14.8,2.8 13,3.1 
			12.9,3.1 12.8,3.1 12.6,3.1 12.5,3.2 12.4,3.2 12.3,3.3 12.1,3.3 12,3.4 11.9,3.4 11.8,3.5 11.7,3.6 11.6,3.6 11.5,3.7 11.4,3.8 
			11.3,3.9 11.2,4 11.1,4 11,4.1 10.9,4.2 10.8,4.3 10.7,4.4 10.7,4.5 10.6,4.6 10.5,4.8 10.5,4.9 10.4,5 10.3,5.1 10.3,5.2 
			10.3,5.3 10.2,5.4 10.2,5.6 10.2,5.7 10.1,5.8 10.1,6 10.1,6.1 10.1,6.3 10.1,6.4 10,6.6 10,6.8 10,6.9 10,7.1 10,7.2 10,7.4 
			10,7.5 10,7.7 10,7.9 10,8 10,8.2 10,8.8 7.7,9.1 7.7,11.8 10,11.4 10,17.9 4.4,18.7 4.2,18.7 3.9,18.7 3.7,18.7 3.5,18.7 
			3.3,18.7 3.1,18.7 2.9,18.7 2.7,18.6 2.6,18.6 2.4,18.5 2.2,18.4 2,18.4 1.9,18.3 1.7,18.2 1.6,18.1 1.4,18 1.3,17.8 1.1,17.7 
			1,17.6 0.9,17.5 0.8,17.3 0.7,17.2 0.6,17 0.5,16.8 0.4,16.7 0.4,16.5 0.3,16.3 0.3,16.1 0.2,16 0.2,15.8 0.2,15.6 0.2,15.4 
			0.2,6.3 0.2,6 0.2,5.8 0.2,5.6 0.3,5.4 0.3,5.2 0.4,5 0.4,4.8 0.5,4.7 0.6,4.5 0.7,4.3 0.8,4.1 0.9,3.9 1,3.7 1.1,3.6 1.3,3.4 
			1.4,3.3 1.6,3.1 1.7,2.9 1.9,2.8 2,2.7 2.2,2.5 2.4,2.4 2.6,2.3 2.7,2.2 2.9,2.1 3.1,2 3.3,1.9 3.5,1.9 3.7,1.8 3.9,1.7 4.2,1.7 
			4.4,1.7 13.8,0.3 14,0.3 14.2,0.3 14.4,0.3 14.6,0.3 14.7,0.3 14.9,0.3 15.1,0.3 15.3,0.4 15.4,0.4 15.6,0.4 15.8,0.5 15.9,0.6 
			16.1,0.6 16.2,0.7 16.4,0.8 16.5,0.9 16.7,1 16.8,1.1 16.9,1.2 17,1.3 17.1,1.4 17.3,1.5 17.4,1.7 17.5,1.8 17.5,1.9 17.6,2.1 
			17.7,2.2 17.8,2.4 17.8,2.5 17.9,2.7 17.9,2.9 18,3 18,13.6 		"/>
		<polygon class="st0" points="17.4,6.1 17.4,3.8 17.3,3.8 17.2,3.8 17.1,3.8 17,3.8 16.9,3.8 16.8,3.8 16.7,3.8 16.6,3.8 14.8,4.1 
			14.7,4.1 14.6,4.1 14.5,4.1 14.3,4.2 14.2,4.2 14.1,4.3 14,4.3 13.9,4.4 13.7,4.4 13.6,4.5 13.5,4.5 13.4,4.6 13.3,4.7 13.2,4.8 
			13.1,4.9 13,4.9 12.9,5 12.8,5.1 12.7,5.2 12.6,5.3 12.6,5.4 12.5,5.5 12.4,5.6 12.3,5.7 12.3,5.9 12.2,6 12.2,6.1 12.1,6.2 
			12.1,6.3 12,6.4 12,6.6 12,6.7 11.9,6.8 11.9,7 11.9,7.1 11.9,7.3 11.9,7.4 11.9,7.6 11.9,7.7 11.9,7.9 11.9,8.1 11.8,8.2 
			11.8,8.4 11.8,8.5 11.8,8.7 11.8,8.9 11.8,9 11.8,9.2 11.8,9.8 9.5,10.1 9.5,12.7 11.8,12.4 11.8,18.9 14.7,18.5 14.7,12 17,11.7 
			17,11.5 17,11.3 17,11.2 17,11 17.1,10.8 17.1,10.7 17.1,10.5 17.1,10.3 17.2,10.2 17.2,10 17.2,9.8 17.2,9.7 17.3,9.5 17.3,9.3 
			17.3,9.2 17.3,9 14.7,9.4 14.7,7.5 14.7,7.4 14.7,7.3 14.7,7.2 14.7,7.1 14.7,7 14.8,7 14.8,6.9 14.9,6.8 14.9,6.8 15,6.7 
			15.1,6.6 15.1,6.6 15.2,6.5 15.3,6.5 15.4,6.5 15.5,6.4 15.6,6.4 15.7,6.3 15.9,6.3 16,6.3 16.1,6.3 16.3,6.2 16.4,6.2 16.5,6.2 
			17.4,6.1 		"/>
		<polygon class="st0" points="15.6,5.1 14.7,5.2 14.6,5.2 14.4,5.2 14.3,5.3 14.2,5.3 14,5.3 13.9,5.4 13.8,5.4 13.6,5.4 13.5,5.5 
			13.5,5.5 13.4,5.6 13.3,5.6 13.2,5.7 13.2,5.7 13.1,5.8 13.1,5.8 13,5.9 13,6 12.9,6.1 12.9,6.1 12.9,6.2 12.8,6.3 12.8,6.4 
			12.8,6.5 12.8,8.4 15.5,8 15.5,8.2 15.5,8.3 15.4,8.5 15.4,8.7 15.4,8.9 15.4,9 15.3,9.2 15.3,9.3 15.3,9.5 15.3,9.7 15.2,9.8 
			15.2,10 15.2,10.2 15.2,10.3 15.2,10.5 15.1,10.7 12.8,11 12.8,17.5 10,17.9 10,11.4 7.7,11.8 7.7,9.1 10,8.8 10,8.2 10,8 10,7.9 
			10,7.7 10,7.5 10,7.4 10,7.2 10,7.1 10,6.9 10,6.8 10,6.6 10,6.4 10.1,6.3 10.1,6.1 10.1,6 10.1,5.8 10.2,5.7 10.2,5.6 10.2,5.4 
			10.3,5.3 10.3,5.2 10.3,5.1 10.4,5 10.5,4.9 10.5,4.8 10.6,4.6 10.7,4.5 10.7,4.4 10.8,4.3 10.9,4.2 11,4.1 11.1,4 11.2,4 
			11.3,3.9 11.4,3.8 11.5,3.7 11.6,3.6 11.7,3.6 11.8,3.5 11.9,3.4 12,3.4 12.1,3.3 12.3,3.3 12.4,3.2 12.5,3.2 12.6,3.1 12.8,3.1 
			12.9,3.1 13,3.1 14.8,2.8 14.9,2.8 15,2.8 15.1,2.8 15.2,2.8 15.3,2.8 15.4,2.8 15.5,2.8 15.6,2.8 15.6,5.1 		"/>
		<g>
			<g>
				<defs>
					<rect id="SVGID_1_" x="0.2" y="0.3" width="19.6" height="19.5"/>
				</defs>
				<clipPath id="SVGID_00000132073869716597919570000009323591293547835327_">
					<use xlink:href="#SVGID_1_"  style="overflow:visible;"/>
				</clipPath>
				<g style="clip-path:url(#SVGID_00000132073869716597919570000009323591293547835327_);">
					
						<image style="overflow:visible;" width="42" height="42" xlink:href="4C94451.jpg"  transform="matrix(0.48 0 0 0.48 0 -0.16)">
					</image>
				</g>
			</g>
		</g>
	</g>
</g>
</svg>
