<?xml version="1.0" encoding="UTF-8"?><svg id="Layer_1" xmlns="http://www.w3.org/2000/svg" viewBox="0 0 50 50"><defs><style>.cls-1{fill:#fff;}.cls-2{fill:#075962;}</style></defs><path class="cls-2" d="M7,0C3.13,0,0,3.13,0,7V43c0,3.87,3.13,7,7,7H43c3.87,0,7-3.13,7-7V7c0-3.87-3.13-7-7-7H7Z"/><path class="cls-1" d="M27.59,50c-.03-3.27-.06-6.53-.08-9.8-.01-3.04,0-6.07,0-9.24h-6.51v-7.7h6.51c0-.68-.03-1.23,0-1.78,.14-2.44,.08-4.92,.5-7.32,.66-3.71,4.3-6.47,8.07-6.47,1.63,0,3.27-.02,4.9,.01,.7,.01,1.4,.15,2.15,.23v6.77c-.85,0-1.67-.03-2.48,0-.98,.05-1.96,.11-2.93,.24-1.26,.18-2.21,1.26-2.27,2.72-.07,1.78-.02,3.57-.02,5.51h7.5c-.34,2.64-.66,5.12-1,7.71h-6.51v1.33c0,5.47,0,10.95,0,16.42,0,.45-.05,.91-.08,1.36h-7.76Z"/></svg>