<?xml version="1.0" encoding="UTF-8"?><svg id="Layer_1" xmlns="http://www.w3.org/2000/svg" xmlns:xlink="http://www.w3.org/1999/xlink" viewBox="0 0 162.72 77.68"><defs><style>.cls-1{fill:#fff;}.cls-2{fill:#c90;}.cls-3{clip-path:url(#clippath);}.cls-4{fill:none;}</style><clipPath id="clippath"><rect class="cls-4" width="162.72" height="77.68"/></clipPath></defs><g class="cls-3"><path class="cls-2" d="M151.84,26.72c3.28,3.6,4.88,7.76,4.8,12.56-.08,4.88-1.84,8.96-5.28,12.4s-7.52,5.12-12.32,5.12-8.72-1.68-12-5.12c-3.28-3.44-5.04-7.52-5.12-12.32-.08-5.04,1.6-9.36,5.12-13.12,3.6-3.76,7.84-5.44,12.88-5.2,4.72,.16,8.64,2.08,11.92,5.68m-30.08,28c4.56,5.12,10.16,7.84,16.88,8.08,6.56,.24,12.24-2.08,16.96-6.8,4.72-4.8,7.12-10.56,7.12-17.2s-2.24-11.92-6.64-16.56c-4.4-4.64-9.76-7.04-16.08-7.2-6.56-.24-12.24,2.08-17.04,6.88-4.72,4.72-7.12,10.4-7.12,16.96v38.8h5.92v-22.96ZM108.88,0h-6.08V61.68h6.08V0Z"/><path class="cls-1" d="M56.4,35.36c.88-4.32,2.88-7.84,6.16-10.48s7.12-4,11.52-3.92c4.4,.08,8.16,1.44,11.28,4.08,3.12,2.64,5.12,6.08,6,10.32H56.4Zm33.36,11.36c-3.12,6.56-8.24,9.92-15.44,10-4.64,.08-8.64-1.44-12.08-4.4-3.44-2.96-5.36-6.8-5.84-11.36h40.96v-3.28c0-5.68-2.16-10.8-6.48-15.36-4.48-4.64-9.76-7.12-15.84-7.52-6.8-.4-12.64,1.92-17.68,6.88-4.96,4.88-7.36,10.8-7.2,17.6,.08,6.48,2.56,12,7.36,16.72,4.8,4.64,10.32,6.88,16.56,6.8,4.96-.08,9.44-1.52,13.52-4.4,4.08-2.88,6.96-6.8,8.64-11.68h-6.48ZM43.28,.16h-5.92V27.52H6V.16H0V61.68H6v-28.32h31.36v28.32h5.92V.16Z"/></g></svg>