<?xml version="1.0" encoding="utf-8"?>
<!-- Generator: Adobe Illustrator 26.3.1, SVG Export Plug-In . SVG Version: 6.00 Build 0)  -->
<svg version="1.1" id="Layer_1" xmlns="http://www.w3.org/2000/svg" xmlns:xlink="http://www.w3.org/1999/xlink" x="0px" y="0px"
	 viewBox="0 0 20 20" style="enable-background:new 0 0 20 20;" xml:space="preserve">
<style type="text/css">
	.st0{clip-path:url(#SVGID_00000037666991480714043180000008039708171048452236_);}
	.st1{fill:#CC9900;}
	.st2{fill:none;stroke:#FFFFFF;stroke-width:1.2;}
	.st3{fill:none;stroke:#FFFFFF;}
	.st4{fill:#FFFFFF;}
</style>
<g>
	<defs>
		<rect id="SVGID_1_" width="20" height="20"/>
	</defs>
	<clipPath id="SVGID_00000127754492648916516630000003683453445271199906_">
		<use xlink:href="#SVGID_1_"  style="overflow:visible;"/>
	</clipPath>
	<g style="clip-path:url(#SVGID_00000127754492648916516630000003683453445271199906_);">
		<path class="st1" d="M4.7,0h10.7C17.9,0,20,2.1,20,4.7v10.7c0,2.6-2.1,4.7-4.7,4.7H4.7C2.1,20,0,17.9,0,15.3V4.7
			C0,2.1,2.1,0,4.7,0z"/>
		<path class="st2" d="M6.3,3.7h7.4c1.5,0,2.6,1.2,2.6,2.6v7.4c0,1.5-1.2,2.6-2.6,2.6H6.3c-1.5,0-2.6-1.2-2.6-2.6V6.3
			C3.7,4.9,4.9,3.7,6.3,3.7z"/>
		<circle class="st3" cx="10" cy="10" r="2.7"/>
		<path class="st4" d="M13.6,7.3c0.5,0,0.9-0.4,0.9-0.9s-0.4-0.9-0.9-0.9s-0.9,0.4-0.9,0.9S13.1,7.3,13.6,7.3"/>
	</g>
</g>
</svg>
