<?xml version="1.0" encoding="UTF-8"?><svg id="Layer_1" xmlns="http://www.w3.org/2000/svg" viewBox="0 0 50 50"><defs><style>.cls-1{fill:#075962;}.cls-2{fill:#c90;}.cls-3{fill:none;stroke:#fff;stroke-width:2.5px;}</style></defs><path class="cls-1" d="M7,0C3.13,0,0,3.13,0,7V43c0,3.87,3.13,7,7,7H43c3.87,0,7-3.13,7-7V7c0-3.87-3.13-7-7-7H7Z"/><path class="cls-3" d="M12.21,8.21c-2.21,0-4,1.79-4,4v25.58c0,2.21,1.79,4,4,4h25.58c2.21,0,4-1.79,4-4V12.21c0-2.21-1.79-4-4-4H12.21Zm12.79,24.34c4.17,0,7.55-3.38,7.55-7.55s-3.38-7.55-7.55-7.55-7.55,3.38-7.55,7.55,3.38,7.55,7.55,7.55h0Z"/><path class="cls-2" d="M34.08,17.86c1.26,0,2.29-1.02,2.29-2.29s-1.02-2.29-2.29-2.29-2.29,1.02-2.29,2.29,1.02,2.29,2.29,2.29h0Z"/></svg>