<?xml version="1.0" encoding="utf-8"?>
<!-- Generator: Adobe Illustrator 26.3.1, SVG Export Plug-In . SVG Version: 6.00 Build 0)  -->
<svg version="1.1" id="Layer_1" xmlns="http://www.w3.org/2000/svg" xmlns:xlink="http://www.w3.org/1999/xlink" x="0px" y="0px"
	 viewBox="0 0 24 24" style="enable-background:new 0 0 24 24;" xml:space="preserve">
<style type="text/css">
	.st0{fill:none;}
	.st1{fill:#FFFFFF;}
</style>
<g>
	<rect class="st0" width="24" height="24"/>
</g>
<g>
	<path class="st1" d="M12,2C6.5,2,2,6.5,2,12s4.5,10,10,10s10-4.5,10-10S17.5,2,12,2z M12,6c1.9,0,3.5,1.6,3.5,3.5S13.9,13,12,13
		s-3.5-1.6-3.5-3.5S10.1,6,12,6z M12,20c-2,0-4.4-0.8-6.1-2.9C7.6,15.8,9.7,15,12,15s4.5,0.8,6.1,2.1C16.4,19.2,14,20,12,20z"/>
</g>
</svg>
