<?xml version="1.0" encoding="UTF-8"?><svg id="Layer_1" xmlns="http://www.w3.org/2000/svg" xmlns:xlink="http://www.w3.org/1999/xlink" viewBox="0 0 322.8 62.9"><defs><style>.cls-1{fill:#fff;}.cls-2{fill:#c90;}.cls-3{clip-path:url(#clippath);}.cls-4{fill:none;}</style><clipPath id="clippath"><rect class="cls-4" width="322.8" height="62.9"/></clipPath></defs><g class="cls-3"><path class="cls-2" d="M300.24,48.08h-6.32c0,3.92,1.28,7.28,3.84,10.08,2.64,2.8,5.84,4.4,9.68,4.64,4.16,.24,7.84-1.12,11.04-4.08,3.2-3.04,4.64-6.64,4.32-10.72-.4-6-3.68-10.08-9.76-12.16l-5.28-1.76c-4.08-1.36-6.08-3.68-5.84-6.96,.08-3.52,2.96-6.16,6.4-6.24,3.52,0,6.72,2.16,6.72,5.36v1.04h6.4l-.08-1.36c-.24-3.2-1.68-5.84-4.4-8-2.64-2.16-5.52-3.2-8.64-3.04-3.6,.16-6.64,1.52-9.2,4-2.48,2.48-3.68,5.52-3.52,9.04,.24,5.84,3.2,9.68,8.8,11.44l5.36,1.68c4.48,1.44,6.72,4.08,6.64,8-.08,2.24-.72,4.08-2.08,5.44-1.52,1.52-3.52,2.24-6.08,2.32-1.92,.08-3.76-.72-5.44-2.4s-2.56-3.28-2.56-4.8v-1.52Zm-11.68,9.44c-6.96,0-10.48-3.36-10.48-10.16V21.6h10.48v-5.68h-10.48V0h-6.16V48.4c0,9.44,5.52,14.16,16.64,14.16v-5.04Zm-19.84-9.36h-6.88c-3.52,5.6-8.8,8.48-15.92,8.56-4.96,.08-9.28-1.68-12.88-5.2-3.6-3.6-5.44-7.84-5.44-12.8s1.92-9.28,5.84-12.88c3.76-3.52,7.92-5.2,12.64-5.12,7.04,.16,12.24,3.2,15.68,9.04h6.88l-.88-2c-1.68-3.76-4.56-6.8-8.48-9.28-4.16-2.56-8.64-3.84-13.44-3.76-6.72,.08-12.48,2.56-17.36,7.28-4.8,4.72-7.12,10.32-7.04,16.96,.08,6.56,2.48,12.16,7.28,16.72s10.48,6.88,17.12,6.96c10,.08,17.44-4.24,22.24-13.12l.64-1.36Zm-54.08-32.16h-6.16v26.72c0,3.84-1.44,7.12-4.24,9.92-2.8,2.72-6,4.08-9.76,4.08s-7.04-1.36-9.84-4.08c-2.8-2.8-4.16-6.08-4.16-9.92V16h-6.16v26c0,5.92,1.92,10.88,5.68,14.8,3.84,3.92,8.64,5.92,14.48,5.92s10.64-2,14.4-5.92c3.84-3.92,5.76-8.88,5.76-14.8V16Z"/><path class="cls-1" d="M131.84,51.28c-3.28-3.6-4.88-7.84-4.8-12.64,.08-4.88,1.76-8.96,5.2-12.4,3.44-3.44,7.6-5.2,12.4-5.12,4.72,0,8.64,1.68,11.92,5.12,3.28,3.44,5.04,7.52,5.12,12.32,.16,5.04-1.52,9.36-5.12,13.12-3.52,3.76-7.76,5.44-12.8,5.2-4.72-.16-8.64-2-11.92-5.6M167.84,.24h-6V23.2c-4.48-5.12-10.08-7.84-16.8-8.08-6.56-.24-12.24,2.08-16.96,6.88-4.72,4.72-7.12,10.48-7.12,17.12s2.16,11.92,6.56,16.56c4.4,4.64,9.84,7.04,16.16,7.2,6.56,.24,12.24-2.08,17.12-6.8,4.88-4.8,7.2-10.48,7.04-17.04V.24ZM77.92,51.04c-3.28-3.6-4.8-7.84-4.72-12.64,.08-4.88,1.76-8.96,5.2-12.4,3.44-3.44,7.52-5.2,12.4-5.12,4.64,0,8.56,1.68,11.84,5.12,3.28,3.44,5.04,7.52,5.2,12.32,.08,5.04-1.6,9.36-5.2,13.12-3.52,3.76-7.76,5.44-12.8,5.2-4.72-.16-8.64-2-11.92-5.6m36-12.24c0-6.4-2.24-11.92-6.64-16.56-4.4-4.72-9.84-7.12-16.16-7.36-6.56-.24-12.24,2.08-16.96,6.88-4.72,4.72-7.12,10.48-7.12,17.12s2.16,11.92,6.56,16.56c4.4,4.64,9.84,7.04,16.16,7.2,6.56,.24,12.24-2.08,16.96-6.8,4.8-4.8,7.2-10.48,7.2-17.04m-63.6-4.48c0-2.96,.48-5.28,1.52-7.04,.64-1.04,1.84-2.32,3.6-3.76,1.76-1.44,4.08-2.24,6.88-2.32v-6.08c-2.4-.08-4.72,.48-7.04,1.68-2.48,1.36-4.4,3.2-5.68,5.68v-6.48h-5.68V61.6h6.4v-27.28ZM6.4,31.52V5.84h13.68c3.76,0,7.12,1.12,9.92,3.44,2.88,2.24,4.4,5.12,4.56,8.64,.24,4.08-1.12,7.36-4.08,9.92-2.72,2.48-6.08,3.68-10,3.68H6.4Zm0,5.6h15.28c5.2,0,9.68-1.68,13.44-5.12,3.76-3.44,5.68-7.6,5.76-12.64,.08-5.52-1.84-10.16-5.92-13.76C30.88,1.92,25.84,.08,19.76,.08H0V61.6H6.4v-24.48Z"/></g></svg>