<?xml version="1.0" encoding="utf-8"?>
<!-- Generator: Adobe Illustrator 26.3.1, SVG Export Plug-In . SVG Version: 6.00 Build 0)  -->
<svg version="1.1" id="Layer_1" xmlns="http://www.w3.org/2000/svg" xmlns:xlink="http://www.w3.org/1999/xlink" x="0px" y="0px"
	 viewBox="0 0 256 92.6" style="enable-background:new 0 0 256 92.6;" xml:space="preserve">
<style type="text/css">
	.st0{clip-path:url(#SVGID_00000134949084203415496260000003227389429365367692_);fill:#CC9900;}
	
		.st1{clip-path:url(#SVGID_00000134949084203415496260000003227389429365367692_);fill:none;stroke:#CC9900;stroke-width:5.282;stroke-miterlimit:8;}
	
		.st2{clip-path:url(#SVGID_00000134949084203415496260000003227389429365367692_);fill:none;stroke:#CC9900;stroke-width:3.736;stroke-miterlimit:8;}
	.st3{clip-path:url(#SVGID_00000134949084203415496260000003227389429365367692_);fill:#075962;}
	
		.st4{clip-path:url(#SVGID_00000134949084203415496260000003227389429365367692_);fill:none;stroke:#075962;stroke-width:5;stroke-miterlimit:8;}
	.st5{fill:#075962;}
</style>
<g>
	<defs>
		<rect id="SVGID_1_" width="256" height="92.6"/>
	</defs>
	<clipPath id="SVGID_00000139274870211465483200000018155782582720818090_">
		<use xlink:href="#SVGID_1_"  style="overflow:visible;"/>
	</clipPath>
	<path style="clip-path:url(#SVGID_00000139274870211465483200000018155782582720818090_);fill:#CC9900;" d="M173.3,22.5h-5.8v53.3
		c0,2.4-1,4.5-2.9,6.2c-1.9,1.7-4,2.4-6.5,2.3c-2.6-0.1-4.8-1-6.7-2.7c-1.9-1.7-2.8-3.8-2.9-6.2h-5.6c0.1,4,1.7,7.4,4.6,10.3
		c3,2.8,6.5,4.2,10.5,4.2c4.2,0,7.7-1.3,10.8-4c3-2.7,4.5-6.1,4.5-10V22.5z"/>
	
		<path style="clip-path:url(#SVGID_00000139274870211465483200000018155782582720818090_);fill:none;stroke:#CC9900;stroke-width:5.282;stroke-miterlimit:8;" d="
		M173.3,22.5h-5.8v53.3c0,2.4-1,4.5-2.9,6.2c-1.9,1.7-4,2.4-6.5,2.3c-2.6-0.1-4.8-1-6.7-2.7c-1.9-1.7-2.8-3.8-2.9-6.2h-5.6
		c0.1,4,1.7,7.4,4.6,10.3c3,2.8,6.5,4.2,10.5,4.2c4.2,0,7.7-1.3,10.8-4c3-2.7,4.5-6.1,4.5-10V22.5z"/>
	<path style="clip-path:url(#SVGID_00000139274870211465483200000018155782582720818090_);fill:#CC9900;" d="M202,73.2
		c-4.7-5.2-7-11.4-6.8-18.3c0.1-7.1,2.5-13,7.5-18s10.9-7.5,18-7.4c6.7,0,12.4,2.4,17.1,7.4c4.7,5,7.3,10.9,7.5,17.8
		c0.1,7.3-2.3,13.6-7.5,19c-5.1,5.4-11.2,7.9-18.5,7.5C212.4,81.1,206.7,78.4,202,73.2 M254.1,55.5c0-9.3-3.2-17.3-9.6-24
		c-6.4-6.8-14.2-10.3-23.4-10.7c-9.5-0.3-17.7,3-24.6,10c-6.8,6.8-10.3,15.2-10.3,24.8c0,9.3,3.1,17.3,9.5,24
		c6.4,6.7,14.2,10.2,23.4,10.4c9.5,0.3,17.7-3,24.6-9.8C250.6,73.2,254.1,65,254.1,55.5"/>
	
		<path style="clip-path:url(#SVGID_00000139274870211465483200000018155782582720818090_);fill:none;stroke:#CC9900;stroke-width:3.736;stroke-miterlimit:8;" d="
		M202,73.2c-4.7-5.2-7-11.4-6.8-18.3c0.1-7.1,2.5-13,7.5-18s10.9-7.5,18-7.4c6.7,0,12.4,2.4,17.1,7.4c4.7,5,7.3,10.9,7.5,17.8
		c0.1,7.3-2.3,13.6-7.5,19c-5.1,5.4-11.2,7.9-18.5,7.5C212.4,81.1,206.7,78.4,202,73.2z M254.1,55.5c0-9.3-3.2-17.3-9.6-24
		c-6.4-6.8-14.2-10.3-23.4-10.7c-9.5-0.3-17.7,3-24.6,10c-6.8,6.8-10.3,15.2-10.3,24.8c0,9.3,3.1,17.3,9.5,24
		c6.4,6.7,14.2,10.2,23.4,10.4c9.5,0.3,17.7-3,24.6-9.8C250.6,73.2,254.1,65,254.1,55.5z"/>
	<path style="clip-path:url(#SVGID_00000139274870211465483200000018155782582720818090_);fill:#075962;" d="M148.3,41.6
		c0-5.5-1.8-10-5.3-13.6c-3.6-3.6-8-5.5-13.3-5.5c-5.4,0-9.9,1.9-13.4,5.5c-3.6,3.6-5.3,8.1-5.3,13.6v24.1h5.7V41
		c0-3.6,1.3-6.6,3.9-9.2c2.6-2.6,5.7-3.9,9.2-3.9c3.5,0,6.4,1.3,9,3.9c2.6,2.6,3.9,5.6,3.9,9.2v24.7h5.7V41.6z"/>
	
		<path style="clip-path:url(#SVGID_00000139274870211465483200000018155782582720818090_);fill:none;stroke:#075962;stroke-width:5;stroke-miterlimit:8;" d="
		M148.3,41.6c0-5.5-1.8-10-5.3-13.6c-3.6-3.6-8-5.5-13.3-5.5c-5.4,0-9.9,1.9-13.4,5.5c-3.6,3.6-5.3,8.1-5.3,13.6v24.1h5.7V41
		c0-3.6,1.3-6.6,3.9-9.2c2.6-2.6,5.7-3.9,9.2-3.9c3.5,0,6.4,1.3,9,3.9c2.6,2.6,3.9,5.6,3.9,9.2v24.7h5.7V41.6z"/>
	<path style="clip-path:url(#SVGID_00000139274870211465483200000018155782582720818090_);fill:#075962;" d="M63.5,31.7
		c3.2-3.2,7-4.7,11.5-4.7c4.3,0,8,1.6,11,4.7c3,3.2,4.7,7,4.7,11.4c0.1,4.7-1.5,8.7-4.8,12.2c-3.3,3.4-7.2,5-11.9,4.8
		c-4.3-0.2-8-1.9-11-5.3c-3-3.3-4.4-7.3-4.4-11.7C58.7,38.6,60.3,34.9,63.5,31.7 M96.4,43.8v-0.3c0.2-5.9-1.8-11-5.9-15.3
		c-4.1-4.4-9.2-6.6-15.1-6.8c-6.1-0.2-11.4,1.9-15.8,6.3c-4.4,4.4-6.6,9.7-6.6,15.9c0,5.9,2.1,11,6.1,15.3c4.1,4.3,9,6.5,14.9,6.7
		c6.7,0.2,12.3-2.3,16.9-7.6v6.6h5.5V43.8z"/>
	
		<path style="clip-path:url(#SVGID_00000139274870211465483200000018155782582720818090_);fill:none;stroke:#075962;stroke-width:5;stroke-miterlimit:8;" d="
		M63.5,31.7c3.2-3.2,7-4.7,11.5-4.7c4.3,0,8,1.6,11,4.7c3,3.2,4.7,7,4.7,11.4c0.1,4.7-1.5,8.7-4.8,12.2c-3.3,3.4-7.2,5-11.9,4.8
		c-4.3-0.2-8-1.9-11-5.3c-3-3.3-4.4-7.3-4.4-11.7C58.7,38.6,60.3,34.9,63.5,31.7z M96.4,43.8v-0.3c0.2-5.9-1.8-11-5.9-15.3
		c-4.1-4.4-9.2-6.6-15.1-6.8c-6.1-0.2-11.4,1.9-15.8,6.3c-4.4,4.4-6.6,9.7-6.6,15.9c0,5.9,2.1,11,6.1,15.3c4.1,4.3,9,6.5,14.9,6.7
		c6.7,0.2,12.3-2.3,16.9-7.6v6.6h5.5V43.8z"/>
	<path style="clip-path:url(#SVGID_00000139274870211465483200000018155782582720818090_);fill:#075962;" d="M1.1,0
		C0.5,0,0,0.5,0,1.1v8.7c0,0.6,0.5,1.1,1.1,1.1h173.8c0.6,0,1.1-0.5,1.1-1.1V1.1c0-0.6-0.5-1.1-1.1-1.1H1.1z"/>
</g>
<rect x="28.2" y="9.3" class="st5" width="11.5" height="58.8"/>
</svg>
