<?xml version="1.0" encoding="utf-8"?>
<!-- Generator: Adobe Illustrator 26.3.1, SVG Export Plug-In . SVG Version: 6.00 Build 0)  -->
<svg version="1.1" id="Layer_1" xmlns="http://www.w3.org/2000/svg" xmlns:xlink="http://www.w3.org/1999/xlink" x="0px" y="0px"
	 viewBox="0 0 371.7 62.8" style="enable-background:new 0 0 371.7 62.8;" xml:space="preserve">
<style type="text/css">
	.st0{clip-path:url(#SVGID_00000077309670772401601150000008191472275868798380_);fill:#CC9900;}
	.st1{clip-path:url(#SVGID_00000077309670772401601150000008191472275868798380_);fill:#FFFFFF;}
</style>
<g>
	<defs>
		<rect id="SVGID_1_" width="371.7" height="62.8"/>
	</defs>
	<clipPath id="SVGID_00000150783546861018410390000018365387764434799549_">
		<use xlink:href="#SVGID_1_"  style="overflow:visible;"/>
	</clipPath>
	<path style="clip-path:url(#SVGID_00000150783546861018410390000018365387764434799549_);fill:#CC9900;" d="M330.7,35.4
		c0.9-4.3,2.9-7.8,6.2-10.5c3.3-2.6,7.1-4,11.5-3.9c4.4,0.1,8.2,1.4,11.3,4.1c3.1,2.6,5.1,6.1,6,10.3H330.7z M364.1,46.7
		c-3.1,6.6-8.2,9.9-15.4,10c-4.6,0.1-8.6-1.4-12.1-4.4c-3.4-3-5.4-6.8-5.8-11.4h41v-3.3c0-5.7-2.2-10.8-6.5-15.4
		c-4.5-4.6-9.8-7.1-15.8-7.5c-6.8-0.4-12.6,1.9-17.7,6.9c-5,4.9-7.4,10.8-7.2,17.6c0.1,6.5,2.6,12,7.4,16.7
		c4.8,4.6,10.3,6.9,16.6,6.8c5-0.1,9.4-1.5,13.5-4.4s7-6.8,8.6-11.7H364.1z M317.9,34.4c0-5.7-1.7-10.3-5-13.8
		c-3.1-3.3-7.1-5.1-12.1-5.5c-6.6-0.6-11.9,2.3-15.8,8.5c-3.9-6.2-9.2-9-15.8-8.5c-5,0.4-9,2.2-12,5.5c-3.3,3.4-4.9,8.1-4.9,13.8
		v27.3h6.3v-28c0-3.6,1-6.6,3-9s4.6-3.8,7.9-3.8c3.4,0,6.2,1.1,8.6,3.3c2.5,2.2,3.7,4.9,3.7,8.2v29.4h6.4V32.3c0-3.3,1.2-6,3.6-8.2
		c2.5-2.2,5.4-3.3,8.7-3.3c3.3,0,6,1.3,8,3.8s3,5.5,3,9v28h6.3V34.4z M210.2,51.1c-3.3-3.6-4.8-7.8-4.7-12.6c0.1-4.9,1.8-9,5.2-12.4
		c3.4-3.4,7.5-5.2,12.4-5.1c4.6,0,8.6,1.7,11.8,5.1c3.3,3.4,5,7.5,5.2,12.3c0.1,5-1.6,9.4-5.2,13.1c-3.5,3.8-7.8,5.4-12.8,5.2
		C217.4,56.6,213.4,54.7,210.2,51.1 M246.2,38.9c0-6.4-2.2-11.9-6.6-16.6c-4.4-4.7-9.8-7.1-16.2-7.4c-6.6-0.2-12.2,2.1-17,6.9
		c-4.7,4.7-7.1,10.5-7.1,17.1c0,6.4,2.2,11.9,6.6,16.6c4.4,4.6,9.8,7,16.2,7.2c6.6,0.2,12.2-2.1,17-6.8
		C243.8,51.1,246.2,45.4,246.2,38.9"/>
	<path style="clip-path:url(#SVGID_00000150783546861018410390000018365387764434799549_);fill:#FFFFFF;" d="M196.1,48.2h-6.9
		c-3.5,5.6-8.8,8.5-15.9,8.6c-5,0.1-9.3-1.7-12.9-5.2c-3.6-3.6-5.4-7.8-5.4-12.8s1.9-9.3,5.8-12.9c3.8-3.5,7.9-5.2,12.6-5.1
		c7,0.2,12.2,3.2,15.7,9h6.9l-0.9-2c-1.7-3.8-4.6-6.8-8.5-9.3c-4.2-2.6-8.6-3.8-13.4-3.8c-6.7,0.1-12.5,2.6-17.4,7.3
		c-4.8,4.7-7.1,10.3-7,17c0.1,6.6,2.5,12.2,7.3,16.7c4.8,4.6,10.5,6.9,17.1,7c10,0.1,17.4-4.2,22.2-13.1L196.1,48.2z M141.9,0h-6.1
		v61.7h6.1V0z M89.4,35.4c0.9-4.3,2.9-7.8,6.2-10.5c3.3-2.6,7.1-4,11.5-3.9c4.4,0.1,8.2,1.4,11.3,4.1c3.1,2.6,5.1,6.1,6,10.3H89.4z
		 M122.8,46.7c-3.1,6.6-8.2,9.9-15.4,10c-4.6,0.1-8.6-1.4-12.1-4.4c-3.4-3-5.4-6.8-5.8-11.4h41v-3.3c0-5.7-2.2-10.8-6.5-15.4
		c-4.5-4.6-9.8-7.1-15.8-7.5c-6.8-0.4-12.6,1.9-17.7,6.9c-5,4.9-7.4,10.8-7.2,17.6c0.1,6.5,2.6,12,7.4,16.7
		c4.8,4.6,10.3,6.9,16.6,6.8c5-0.1,9.4-1.5,13.5-4.4c4.1-2.9,7-6.8,8.6-11.7H122.8z M78.2,0h-6.9L56.7,53.2L41.7,0H36L21.4,53.4
		L6.3,0H0l17.3,61.7h8.5l13-50.6l13.5,50.6h8.5L78.2,0z"/>
</g>
</svg>
